inDegrees=no
num_controls=7
num_derivatives=13
num_iterations=153
num_multipliers=7
num_parameters=0
num_slacks=7
num_states=26
objective=5.783331
objective_accelerations=0.470790
objective_balance=0.059194
objective_effort=0.422095
objective_height=4.760339
objective_ligament=0.070913
solver_duration=1665.579683
status=Solve_Succeeded
success=true
DataType=double
version=3
OpenSimVersion=4.4-2022-07-23-0e9fedc
endheader
time	/jointset/ground_pelvis/pelvis_tilt/value	/jointset/ground_pelvis/pelvis_tx/value	/jointset/ground_pelvis/pelvis_ty/value	/jointset/hip_l/hip_flexion_l/value	/jointset/hip_l/hip_adduction_l/value	/jointset/hip_l/hip_rotation_l/value	/jointset/back/lumbar_extension/value	/jointset/patellofemoral_l/patellar_flexion_l/value	/jointset/knee_l/knee_flexion_l/value	/jointset/knee_l/knee_adduction_l/value	/jointset/knee_l/knee_rotation_l/value	/jointset/ankle_l/ankle_angle_l/value	/jointset/subtalar_l/subtalar_angle_l/value	/jointset/ground_pelvis/pelvis_tilt/speed	/jointset/ground_pelvis/pelvis_tx/speed	/jointset/ground_pelvis/pelvis_ty/speed	/jointset/hip_l/hip_flexion_l/speed	/jointset/hip_l/hip_adduction_l/speed	/jointset/hip_l/hip_rotation_l/speed	/jointset/back/lumbar_extension/speed	/jointset/patellofemoral_l/patellar_flexion_l/speed	/jointset/knee_l/knee_flexion_l/speed	/jointset/knee_l/knee_adduction_l/speed	/jointset/knee_l/knee_rotation_l/speed	/jointset/ankle_l/ankle_angle_l/speed	/jointset/subtalar_l/subtalar_angle_l/speed	/forceset/tau_hip_flexion_l	/forceset/tau_hip_adduction_l	/forceset/tau_hip_rotation_l	/forceset/tau_knee_flexion_l	/forceset/tau_ankle_angle_l	/forceset/tau_subtalar_angle_l	/forceset/tau_lumbar_extension	lambda_cid13_p0	lambda_cid13_p1	lambda_cid13_p2	lambda_cid13_p3	lambda_cid13_p4	lambda_cid13_p5	lambda_cid14_p0	/jointset/ground_pelvis/pelvis_tilt/accel	/jointset/ground_pelvis/pelvis_tx/accel	/jointset/ground_pelvis/pelvis_ty/accel	/jointset/hip_l/hip_flexion_l/accel	/jointset/hip_l/hip_adduction_l/accel	/jointset/hip_l/hip_rotation_l/accel	/jointset/back/lumbar_extension/accel	/jointset/patellofemoral_l/patellar_flexion_l/accel	/jointset/knee_l/knee_flexion_l/accel	/jointset/knee_l/knee_adduction_l/accel	/jointset/knee_l/knee_rotation_l/accel	/jointset/ankle_l/ankle_angle_l/accel	/jointset/subtalar_l/subtalar_angle_l/accel	gamma_cid13_p0	gamma_cid13_p1	gamma_cid13_p2	gamma_cid13_p3	gamma_cid13_p4	gamma_cid13_p5	gamma_cid14_p0
0	-0.0368225425905651	0.05667750686605903	0.9203415949030399	0.3085811930696054	-0.2956404073532929	-0.301606206798363	-0.3879500408040475	0.2499276582271404	0.249927658227084	-0.1745328886936748	-0.1745319132402026	-0.0008036543073733089	0.0004376612913243073	0	0	0	0	0	0	0	0	0	0	0	0	0	0.06992849626124052	-0.06091814284466074	-0.02279336624655448	-0.2678619555054737	0.2429828278034357	-0.01304918669134894	0.01258303056724536	34.56145719472362	-2.51173661951003	2.376291836975047	-13.39132501576398	-632.0309569954192	-79.48711882542285	-23.19693574156719	-0.1482014593926911	-1.360560398156412	-0.7427465186847164	7.24546628877594	-0.8239567814632047	3.195509348491417	-6.786529877720428	9.054314030490829	9.054314030490522	1.210148805272492	-0.05930627299067159	2.496230965324496	-0.02973867999573021	-1.379772133556857e-09	1.470611134909741e-07	6.273031478342013e-08	-9.146856716551217e-09	9.922700887865575e-08	-1.40869063763719e-08	4.855033685569035e-09
0.01	-0.03682747026240574	0.05661158326988863	0.9203054047255786	0.3089327437369171	-0.2956816556370503	-0.3014454042744056	-0.3882869967746949	0.250371433093239	0.2503714330932622	-0.1744757167741182	-0.1745311417153263	-0.0006799765331200861	0.0004357167967142715	-0.00100005008693625	-0.01298887516727766	-0.007200739575587234	0.06984332801220114	-0.008211390155530261	0.03200454714158289	-0.06687045555397793	0.08835978730327487	0.08835978730327092	0.01137342827295546	0.0001502640083206621	0.02480406512495636	-0.0003242419423909893	0.06821888036099517	-0.07402792931278433	-0.02295294510146168	-0.270873610841227	0.2459656489242937	-0.001113633944468156	0.01567318340885426	35.86872854924213	-7.75997214996122	3.025369287477995	-16.65125929111354	-635.0167411185987	-90.45160626368403	-23.20202480255197	-0.07809232906171513	-1.238676294007554	-0.7031234441495047	6.783738908291911	-0.8140256325069438	3.179532336253184	-6.559192608596953	8.667532222456298	8.667532222456122	1.091829434754039	0.05159186101842177	2.48277456940737	-0.02409911152130077	-3.402054884132012e-08	1.380770061185956e-07	1.374488094801179e-07	2.230826056261231e-08	-1.794048821867626e-08	-7.00292110648619e-08	-4.521363835489634e-09
0.02	-0.03684283554424383	0.05642164587844831	0.9201983299989301	0.30996872225452	-0.2958038769223374	-0.30096923529117	-0.3892770351437532	0.2516869500608247	0.2516869500608478	-0.174306632652436	-0.1745289877254045	-0.0003062020509507391	0.0004324634506481444	-0.002087522002599017	-0.02480275905398181	-0.01417690983741195	0.1368855700584302	-0.01619460030740143	0.06307329185356145	-0.1306164796824369	0.174348420294971	0.174348420294967	0.02238244040376791	0.0002764929475774914	0.05001934158296054	-0.0002617702912129351	0.06650926446055716	-0.08713771578099068	-0.0231125239565061	-0.2738852661771379	0.2489484700450522	0.01082191880229501	0.01876333625041215	37.24557933716734	-13.02084435122613	3.676980543113992	-20.07779129026443	-637.0013986476159	-101.3283298002579	-23.21699214938145	-0.1656858251385107	-1.125562142041225	-0.6978326559322336	6.685249095581381	-0.7783207807317751	3.008348862568353	-6.161643592616884	8.580083168175388	8.580083168175866	1.137265576843418	-0.06411328680580425	2.57847323193455	0.0476040387178757	-6.666132554908338e-08	1.290928987462171e-07	2.121673041768158e-07	5.376337784177583e-08	-1.351079853160083e-07	-1.259715157533519e-07	-1.38977613565483e-08
0.03	-0.03686916183055999	0.05611802821743885	0.9200223263003744	0.3116626619026788	-0.2960045853547515	-0.300187798075434	-0.3908898728669982	0.2538505880560336	0.2538505880560776	-0.1740290788173453	-0.1745263661240818	0.000319890310494117	0.0004313234991406027	-0.003141461357360143	-0.03586642476078934	-0.02101224679514461	0.2015670808514798	-0.02389187633113601	0.09306128693511442	-0.1915436158304653	0.2579771966364263	0.2579771966364272	0.03307101038857019	0.0002534228544836901	0.07507741182481494	4.914406816884548e-05	0.05916384206067446	-0.07801049779992954	-0.02198288326386505	-0.265570919535807	0.2394942312129138	0.007799381003540516	0.02475555159345733	34.02329004039726	-11.27624810147208	3.549952338297473	-18.19252909319172	-638.3823458502316	-96.78206387871647	-23.2412405664205	-0.06981309077224475	-1.088605645876051	-0.6746742489360845	6.30930066481066	-0.7572005227827826	2.971069656122712	-5.997131256153356	8.193980368176002	8.193980368176506	1.026100379932204	0.02946737424493651	2.451215194498606	0.02509523517045542	-8.707000345066917e-08	1.069438597211354e-07	2.745607680340436e-07	6.920120531184353e-08	-2.117727802018747e-07	-1.759904199390539e-07	-2.259023980861581e-08
0.04	-0.03690494053043659	0.05570540652718749	0.9197783112255928	0.3139933563775025	-0.2962806204493208	-0.2991110719438491	-0.3930997584777738	0.2568384549148912	0.256838454914912	-0.1736463497482592	-0.1745238009744407	0.001192911629195585	0.0004337447113512554	-0.003978004717282098	-0.04660356490235911	-0.0277791850825662	0.2642365353902899	-0.03125993273841576	0.1221310750235961	-0.2500260571888548	0.3391941930197019	0.339194193019705	0.04341748719871243	0.0002652025535983927	0.09940513303418318	0.0004504624524335425	0.05181841966077588	-0.06888327981886293	-0.02085324257142701	-0.2572565728944506	0.2300399923807775	0.004776843204795193	0.03074776693648431	30.86651348441492	-9.539943350336246	3.420615426741936	-16.47270673994522	-638.8343182597782	-92.14849534543275	-23.27398060398743	-0.1222066261711768	-1.060257028993213	-0.6841529218700303	6.282837844733334	-0.7124768574410701	2.824707463952543	-5.672704634689359	8.097727176539649	8.097727176539578	1.068846941911098	-0.0571433283657491	2.432403425437804	0.06568484369437601	-1.072264731294472e-07	8.452337880630728e-08	3.367001075440659e-07	8.430877938378556e-08	-2.87602467825649e-07	-2.258871921556263e-07	-3.126861683658042e-08
